<?xml version="1.0" encoding="UTF-8"?>
<!DOCTYPE svg PUBLIC "-//W3C//DTD SVG 1.1//EN" "http://www.w3.org/Graphics/SVG/1.1/DTD/svg11.dtd">
<!-- Creator: CorelDRAW X8 -->
<svg xmlns="http://www.w3.org/2000/svg" xml:space="preserve" width="47.4644mm" height="46.3921mm" version="1.1" style="shape-rendering:geometricPrecision; text-rendering:geometricPrecision; image-rendering:optimizeQuality; fill-rule:evenodd; clip-rule:evenodd"
viewBox="0 0 911 890"
 xmlns:xlink="http://www.w3.org/1999/xlink">
 <defs>
  <style type="text/css">
   <![CDATA[
    .fil0 {fill:#1F1B20}
   ]]>
  </style>
 </defs>
 <g id="Layer_x0020_1">
  <metadata id="CorelCorpID_0Corel-Layer"/>
  <g id="_1189544160">
   <path class="fil0" d="M465 852c0,6 17,11 24,6 1,-12 -23,-15 -24,-6zm51 -21c-7,6 -15,15 -15,25 8,4 19,-1 26,-6 10,-6 21,-19 20,-34 -11,-1 -23,8 -31,15zm-36 13c8,0 17,-12 15,-21 -1,-9 -12,-16 -23,-13 -19,5 -6,34 8,34zm27 -64c-17,4 -9,52 14,43 10,-13 5,-47 -14,-43zm33 28c3,1 12,-5 13,-10 5,-10 -2,-28 -12,-24 -8,3 -11,33 -1,34zm142 -29c-1,-4 -4,-8 -7,-8 -13,-1 -24,34 -12,40 12,-2 23,-18 19,-32zm24 -36c-15,-6 -24,32 -15,43 13,3 27,-37 15,-43zm16 -3c-9,-1 -8,21 -7,30 6,-3 18,-29 7,-30zm-234 -241c-2,1 1,3 1,4 4,7 12,41 20,42 4,0 9,-7 11,-10 10,-14 19,-30 26,-40 -14,7 -40,9 -58,4zm65 -7c16,2 21,15 35,18 5,-14 4,-38 -4,-48 -7,14 -18,22 -31,30zm233 -53c-13,0 -20,11 -18,26 17,6 20,20 29,33 14,22 79,39 101,10 15,-20 -9,-31 -32,-25 -11,-19 -19,-46 -49,-44 13,8 23,20 25,39 -6,-17 -34,-40 -56,-39zm-371 66c22,6 43,-6 64,-8 -31,-11 -49,-35 -57,-69 0,27 -14,51 -7,77zm-31 -65c4,69 45,117 111,122 42,2 70,-15 89,-40 -13,-4 -17,-16 -30,-21 -9,6 -14,17 -21,29 -5,8 -14,26 -25,26 -8,-1 -12,-16 -15,-24 -3,-10 -6,-23 -14,-25 -10,-4 -21,3 -33,6 -8,3 -26,9 -35,3 -6,-5 -6,-18 -5,-30 1,-20 9,-38 7,-56 -12,-5 -20,7 -29,10zm3 -10c8,-5 27,-18 35,-5 -2,-14 0,-29 3,-40 -17,10 -31,24 -38,45zm399 -79c12,12 42,11 40,-13 -4,8 -22,8 -28,-1 -2,6 -6,11 -12,14zm72 -6c5,1 6,-6 9,-10 -3,0 -4,2 -6,2 -4,-1 -2,-7 -4,-11 -5,5 -6,19 1,19zm-75 -65c-7,1 -20,5 -19,12 0,5 10,6 15,6 9,-1 22,-5 24,-12 -4,-3 -11,-6 -20,-6zm-156 -13c-7,1 -9,-4 -13,-6 0,7 10,12 13,6zm-10 -13c10,-1 3,-18 -6,-8 0,5 3,8 6,8zm3 -27c-29,-22 -33,44 -9,43 -7,-7 -10,-30 2,-32 14,-2 19,15 22,27 -1,-15 -6,-31 -15,-38zm-176 647c-7,4 -10,11 -16,16 -2,-3 -1,-8 -1,-13 -3,0 -8,6 -7,13 -7,-3 -6,-14 -8,-23 -4,5 -4,14 -13,15 5,-26 -13,-36 -23,-50 -2,13 4,24 5,37 -23,-11 -31,-35 -37,-62 -3,4 -1,13 -2,19 -12,-10 -15,-30 -18,-49 -7,-10 -24,-16 -38,-17 -3,0 -9,-1 -12,0 -8,2 -12,19 -19,26 -5,5 -10,6 -16,9 1,-4 3,-6 2,-12 -8,7 -16,21 -33,22 2,-4 6,-8 7,-13 -14,10 -29,26 -56,27 4,-8 4,-20 -1,-27 -4,6 -4,16 -1,22 -8,-1 -12,-6 -16,-11 -1,11 -3,20 -9,26 -3,3 -8,3 -12,5 -8,4 -14,9 -27,10 -46,0 -74,-45 -49,-89 -12,-11 -24,-21 -27,-40 -2,-1 -5,6 -6,10 -10,-15 -5,-41 6,-51 -8,-1 -12,4 -17,7 4,-20 18,-29 35,-36 -4,-5 -21,-9 -27,-2 3,-12 18,-20 36,-20 -4,-6 -15,-15 -27,-12 -1,-5 10,-8 18,-9 10,0 23,2 30,4 -2,-7 -6,-14 -3,-23 7,9 12,21 29,19 8,-14 21,-24 42,-26 2,-30 8,-55 25,-69 0,-4 -4,-3 -6,-5 3,-8 10,-11 17,-16 -11,-8 -26,1 -30,11 1,-15 12,-28 27,-31 -4,-6 -8,-16 -17,-14 0,-6 6,-8 12,-6 -3,-9 -10,-14 -16,-21 3,-3 8,-4 15,-4 -7,-50 -8,-114 -2,-167 1,-9 4,-18 4,-25 0,-14 -10,-26 -14,-37 5,0 7,4 11,6 -2,-9 -4,-22 0,-30 3,2 3,8 8,10 1,-6 0,-15 3,-18 2,2 2,5 3,8 5,-14 11,-36 21,-49 5,-6 17,-17 27,-14 7,6 1,18 -1,27 -2,15 -1,32 -2,47 -1,28 -1,54 1,81 3,75 24,135 55,181 15,2 28,3 42,7 4,1 8,4 11,4 15,2 32,-13 45,-15 12,-39 39,-63 77,-76 7,-13 11,-27 17,-41 -2,-4 -12,-6 -16,-3 0,-9 11,-14 20,-17 -11,-13 -24,-30 -47,-26 4,-9 18,-13 32,-10 -8,-11 -13,-24 -29,-25 6,-9 23,-4 33,-3 -2,-19 2,-41 8,-60 3,-13 10,-23 15,-36 6,-17 13,-44 14,-64 2,-22 -13,-41 -7,-65 2,-4 4,3 7,3 0,-7 1,-12 6,-14 0,9 4,14 6,20 2,-3 1,-8 5,-8 20,53 49,99 62,159 4,0 8,0 11,-2 6,-5 9,-27 11,-42 4,-24 5,-43 6,-67 1,-17 0,-38 9,-47 17,9 22,30 27,50 6,19 12,41 15,61 9,-5 8,-25 12,-37 8,11 3,31 1,44 24,-7 27,-37 27,-65 10,10 16,35 9,52 26,-11 64,-4 76,16 -8,0 -15,-5 -24,-6 -20,-2 -38,6 -48,17 24,0 37,12 45,28 -15,-13 -40,-18 -57,-3 -5,5 -13,14 -13,19 0,4 4,10 8,11 8,2 14,-5 20,-8 0,4 0,7 -1,9 1,3 4,-1 6,0 0,3 -2,4 -3,6 1,2 2,2 4,2 -8,13 2,29 12,34 13,-2 24,0 35,4 5,1 11,5 15,5 8,0 12,-8 20,-11 -1,4 -3,6 -3,10 5,4 12,-1 18,-1 -1,1 -1,3 -1,6 32,8 67,16 63,57 -1,4 -4,9 -3,13 1,9 18,18 15,35 -3,-1 -5,-4 -10,-4 7,20 19,44 12,70 -5,-6 -9,-14 -21,-14 6,16 5,38 -4,49 2,5 4,10 8,13 22,-3 41,2 39,26 -3,29 -53,35 -81,29 -7,3 -12,8 -11,20 -5,-2 -5,-9 -6,-16 -7,3 -3,16 -3,24 -5,-3 -10,-7 -10,-14 -11,8 -9,36 -1,46 -14,-4 -22,-20 -27,-34 -6,2 -3,13 -4,21 -9,-5 -13,-14 -16,-25 -7,2 -8,15 -9,25 -10,-11 -5,-39 -12,-54 -7,2 -4,16 -3,22 -13,-7 -12,-27 -25,-33 -2,18 8,43 -2,57 -6,-38 -35,-60 -45,-96 -3,1 -2,5 -3,7 -3,-17 -19,-32 -11,-53 -3,-7 -26,-15 -35,-13 -5,1 -21,15 -21,22 0,3 8,16 10,22 6,16 8,38 3,58 -1,5 -4,10 -5,15 0,4 2,9 2,13 2,15 -2,30 -3,43 10,-4 27,-13 46,-9 -6,4 -11,8 -15,14 26,-4 45,6 55,20 -5,-2 -12,-4 -17,-1 14,7 26,16 32,31 -2,1 -6,-4 -10,-4 5,5 15,14 16,25 1,3 -4,-1 -5,2 4,10 7,24 4,36 28,1 38,24 32,54 -5,23 -29,51 -49,62 -8,5 -21,10 -28,10 -16,0 -27,-18 -37,-28 -5,4 -7,12 -6,21 -7,-3 -9,-10 -12,-16 -4,5 0,13 1,18 -10,-4 -16,-13 -19,-24 -6,3 -8,11 -7,18 -6,-2 -6,-10 -9,-15 -12,43 -41,72 -90,75 -11,1 -25,0 -31,8 -1,-2 -1,-8 0,-10z"/>
   <path class="fil0" d="M403 403c10,-14 24,16 6,15 -6,-1 -10,-10 -6,-15z"/>
   <path class="fil0" d="M394 446c13,-4 14,15 6,17 -9,2 -16,-14 -6,-17z"/>
   <path class="fil0" d="M429 477c13,-5 16,16 6,17 -8,1 -16,-13 -6,-17z"/>
   <path class="fil0" d="M573 483c8,-2 11,1 11,6 2,10 -17,14 -18,3 -1,-6 2,-7 7,-9z"/>
   <path class="fil0" d="M512 508c6,-1 11,1 11,8 0,19 -33,-3 -11,-8z"/>
   <path class="fil0" d="M552 524c7,-2 10,1 10,5 2,12 -16,15 -18,5 -1,-7 3,-9 8,-10z"/>
   <path class="fil0" d="M476 540c-7,5 -17,0 -17,-7 1,-12 24,-7 17,7z"/>
  </g>
 </g>
</svg>
